<svg version="1.1" id="Layer_1" xmlns="http://www.w3.org/2000/svg" xmlns:xlink="http://www.w3.org/1999/xlink" x="0px" y="0px"
	 width="100%" viewBox="0 0 285 103" enable-background="new 0 0 285 103" xml:space="preserve">
<path fill="#000000" opacity="1.000000" stroke="none" 
	d="
M183.000000,104.000000 
	C122.000015,104.000000 61.500034,104.000000 1.000041,104.000000 
	C1.000027,69.666695 1.000027,35.333389 1.000014,1.000064 
	C95.999939,1.000042 190.999878,1.000042 285.999878,1.000021 
	C285.999908,35.333267 285.999908,69.666534 285.999939,103.999901 
	C251.833328,104.000000 217.666672,104.000000 183.000000,104.000000 
M209.007843,71.007042 
	C209.007843,71.007042 209.017151,71.072197 209.540176,70.923668 
	C209.717758,70.621056 209.895340,70.318443 210.007782,70.006760 
	C210.007782,70.006760 210.016754,70.071938 210.539658,69.924042 
	C210.722321,69.623375 210.904984,69.322716 211.015884,69.017555 
	C211.015884,69.017555 211.014404,69.089439 211.667236,69.029938 
	C212.101013,69.074203 212.534775,69.118462 213.304535,69.812279 
	C215.537704,74.789253 217.626740,79.839493 220.095932,84.696472 
	C220.794357,86.070335 222.606232,87.781082 223.903076,87.777466 
	C227.700775,87.766884 231.496292,86.970413 235.690994,86.430573 
	C231.256012,77.252800 226.863342,68.162636 222.473373,59.078049 
	C228.787476,52.760929 235.080933,46.464447 241.504700,40.037601 
	C227.426834,35.108891 219.245117,43.099762 211.621567,52.496758 
	C212.651733,43.485462 214.128525,35.215347 215.365738,26.909552 
	C216.971848,16.127214 219.434250,17.121550 207.692169,16.965750 
	C204.736313,16.926529 203.392822,17.517698 202.900558,20.927471 
	C201.648926,29.596821 199.573349,38.143517 198.122711,46.788830 
	C196.556046,56.125732 195.324249,65.518822 193.241516,75.301651 
	C193.185226,79.129814 193.128937,82.957985 193.709976,86.946724 
	C194.143570,86.904236 194.577164,86.861748 195.902176,86.982010 
	C205.782883,87.012413 205.782883,87.012413 206.050735,79.026657 
	C206.050735,79.026657 206.062088,79.098854 206.753113,78.733582 
	C207.192902,76.498520 207.632706,74.263458 208.008179,72.013290 
	C208.008179,72.013290 208.019958,72.078308 208.543259,71.926979 
	C208.719849,71.623306 208.896454,71.319641 209.007843,71.007042 
M96.650665,19.782028 
	C96.094856,19.186192 95.539047,18.590355 94.992065,18.012035 
	C94.992065,18.012035 95.011574,18.014078 94.555695,17.304766 
	C91.039841,17.540455 87.523987,17.776146 84.000305,18.000153 
	C84.000305,18.000153 84.011635,18.009703 83.373398,18.177479 
	C83.295975,18.802620 83.218552,19.427763 83.005287,20.862810 
	C81.666191,27.638758 80.327087,34.414707 78.888512,41.694004 
	C69.452850,34.161613 56.718052,36.311749 51.007584,45.764088 
	C46.210274,53.704918 45.649509,62.351128 45.989468,71.277550 
	C46.585152,86.918800 56.872955,90.709221 69.471443,86.706017 
	C70.318794,86.436783 71.130768,85.411636 71.855995,85.508759 
	C76.099304,86.076950 80.311859,86.874809 84.790428,87.638786 
	C86.636459,77.009346 88.343269,67.435974 89.949326,57.845741 
	C91.047874,51.286007 92.006020,44.702759 93.715157,37.722958 
	C93.743111,36.135532 93.771065,34.548111 93.942848,32.538822 
	C93.942848,32.538822 94.005089,32.097485 94.712601,31.724598 
	C94.745132,30.139879 94.777664,28.555162 94.937309,26.532747 
	C94.937309,26.532747 94.993134,26.080399 95.692200,25.668554 
	C95.821602,23.778297 95.951004,21.888042 96.015373,19.997482 
	C96.015373,19.997482 96.038513,20.058266 96.650665,19.782028 
M132.926163,40.468525 
	C124.562103,35.114223 115.702667,35.583538 107.265663,39.524143 
	C102.293861,41.846283 98.588120,46.206085 99.100670,52.813560 
	C103.648605,52.813560 107.941360,52.813560 111.891708,52.813560 
	C113.277924,50.993076 114.198471,48.678215 115.833687,47.934311 
	C117.622917,47.120338 120.581497,46.986870 122.089966,47.982185 
	C123.570511,48.959068 124.799019,51.944298 124.401413,53.641224 
	C124.066299,55.071472 121.364166,56.450020 119.485031,56.888683 
	C117.119370,57.440918 114.499191,56.781002 112.034569,57.055202 
	C105.994949,57.727139 100.347076,59.445778 96.731056,64.850716 
	C91.065659,73.318909 94.141975,85.295769 103.266045,87.380432 
	C107.984634,88.458549 113.399361,86.515442 118.494164,85.893112 
	C119.234901,85.802628 119.987350,85.185051 120.663177,85.286369 
	C125.334412,85.986717 129.986771,86.812996 134.153564,87.515892 
	C134.153564,83.279076 133.840912,80.350159 134.214645,77.511620 
	C135.173706,70.227379 136.709213,63.012264 137.488358,55.713375 
	C138.050186,50.450413 138.630005,44.856689 132.926163,40.468525 
M149.000443,41.379009 
	C146.364319,56.413368 143.728195,71.447731 141.046234,86.743507 
	C145.665070,86.743507 150.107559,86.743507 154.963379,86.743507 
	C156.463577,77.130043 157.912598,67.604881 159.461929,58.096062 
	C159.819077,55.904091 160.262985,53.658863 161.124573,51.632729 
	C162.331024,48.795532 168.247299,46.510647 171.073792,48.229855 
	C172.876450,49.326302 175.023376,52.187420 174.776459,53.942204 
	C173.244141,64.832458 171.077744,75.633499 169.073105,86.733650 
	C173.733627,86.733650 178.171692,86.733650 182.847214,86.733650 
	C183.774994,81.646950 184.886719,76.738762 185.526230,71.769798 
	C186.507812,64.143028 187.616898,56.481480 187.735764,48.820164 
	C187.783066,45.770950 186.164200,41.183338 183.858459,39.906799 
	C178.015671,36.672012 171.341766,35.394966 164.754974,38.801544 
	C163.989487,39.197441 163.074326,39.673046 162.283951,39.589226 
	C158.395691,39.176872 154.533539,38.498562 150.640472,38.176716 
	C150.161575,38.137127 149.552765,39.669189 149.000443,41.379009 
M241.016998,78.554527 
	C240.694855,81.219589 240.372711,83.884659 240.050308,86.551865 
	C252.736313,87.852608 253.094803,87.919563 254.671005,79.480507 
	C257.204590,65.915543 259.210419,52.251991 261.571014,37.824810 
	C256.965820,37.824810 252.748718,37.824810 248.310913,37.824810 
	C247.464447,42.193390 246.687622,45.989235 245.998581,49.800941 
	C244.320023,59.086555 242.682175,68.379524 241.016998,78.554527 
M263.979645,23.737354 
	C263.577393,17.312145 258.662506,18.997091 255.071075,19.175716 
	C253.373123,19.260166 250.464127,20.972261 250.367432,22.135107 
	C250.129883,24.992126 250.250397,29.288683 251.995819,30.541235 
	C254.140640,32.080433 258.328979,31.859764 261.147583,30.928133 
	C262.628082,30.438791 263.070770,26.809620 263.979645,23.737354 
M29.782679,87.732742 
	C33.839268,85.978218 35.409393,82.769485 33.829193,78.806900 
	C33.175793,77.168404 30.898781,75.552330 29.082174,75.134346 
	C25.428852,74.293762 21.879435,74.813370 20.330864,79.190056 
	C18.492514,84.385727 22.005150,87.972748 29.782679,87.732742 
z"/>
<path fill="#F938F9" opacity="1.000000" stroke="none" 
	d="
M94.993134,26.080399 
	C94.993134,26.080399 94.937309,26.532747 94.662888,27.061913 
	C94.260666,29.093214 94.132874,30.595350 94.005089,32.097485 
	C94.005089,32.097485 93.942848,32.538822 93.655563,33.061947 
	C93.254494,35.100056 93.140709,36.615040 93.026932,38.130024 
	C92.006020,44.702759 91.047874,51.286007 89.949326,57.845741 
	C88.343269,67.435974 86.636459,77.009346 84.790428,87.638786 
	C80.311859,86.874809 76.099304,86.076950 71.855995,85.508759 
	C71.130768,85.411636 70.318794,86.436783 69.471443,86.706017 
	C56.872955,90.709221 46.585152,86.918800 45.989468,71.277550 
	C45.649509,62.351128 46.210274,53.704918 51.007584,45.764088 
	C56.718052,36.311749 69.452850,34.161613 78.888512,41.694004 
	C80.327087,34.414707 81.666191,27.638758 83.266998,20.244577 
	C83.689690,19.087465 83.850662,18.548584 84.011635,18.009703 
	C84.011635,18.009703 84.000305,18.000153 84.461136,18.037365 
	C88.285172,18.054411 91.648369,18.034245 95.011574,18.014080 
	C95.011574,18.014078 94.992065,18.012035 95.100937,18.270576 
	C95.486046,19.038836 95.762276,19.548552 96.038513,20.058266 
	C96.038513,20.058266 96.015373,19.997482 95.786041,20.287659 
	C95.368851,22.412024 95.180992,24.246210 94.993134,26.080399 
M65.513031,77.039902 
	C70.484932,76.966133 73.326935,74.660622 74.084099,69.554176 
	C74.816116,64.617348 76.079948,59.761791 76.954292,54.842823 
	C77.565102,51.406467 74.825348,48.371632 70.976059,47.944874 
	C66.668152,47.467262 60.655704,51.851208 60.068562,56.318493 
	C59.449993,61.024891 59.263016,65.792343 58.995491,70.539207 
	C58.773228,74.482948 60.649811,76.737038 65.513031,77.039902 
z"/>
<path fill="#F938F9" opacity="1.000000" stroke="none" 
	d="
M193.946381,74.887405 
	C195.324249,65.518822 196.556046,56.125732 198.122711,46.788830 
	C199.573349,38.143517 201.648926,29.596821 202.900558,20.927471 
	C203.392822,17.517698 204.736313,16.926529 207.692169,16.965750 
	C219.434250,17.121550 216.971848,16.127214 215.365738,26.909552 
	C214.128525,35.215347 212.651733,43.485462 211.621567,52.496758 
	C219.245117,43.099762 227.426834,35.108891 241.504700,40.037601 
	C235.080933,46.464447 228.787476,52.760929 222.473373,59.078049 
	C226.863342,68.162636 231.256012,77.252800 235.690994,86.430573 
	C231.496292,86.970413 227.700775,87.766884 223.903076,87.777466 
	C222.606232,87.781082 220.794357,86.070335 220.095932,84.696472 
	C217.626740,79.839493 215.537704,74.789253 212.999634,69.267601 
	C212.134613,68.845093 211.574509,68.967270 211.014404,69.089439 
	C211.014404,69.089439 211.015884,69.017555 210.819458,69.134033 
	C210.420959,69.524330 210.218857,69.798134 210.016754,70.071938 
	C210.016754,70.071938 210.007782,70.006760 209.810608,70.127884 
	C209.414673,70.523399 209.215912,70.797798 209.017151,71.072189 
	C209.017151,71.072197 209.007843,71.007042 208.809845,71.128067 
	C208.414566,71.525497 208.217255,71.801903 208.019958,72.078308 
	C208.019958,72.078308 208.008179,72.013290 207.668610,72.124054 
	C206.906723,74.522820 206.484406,76.810837 206.062073,79.098854 
	C206.062088,79.098854 206.050735,79.026657 205.791916,79.257683 
	C204.602142,84.995110 201.145554,86.932167 195.876740,86.362625 
	C195.607681,86.333549 195.300293,86.658928 195.010757,86.819267 
	C194.577164,86.861748 194.143570,86.904236 193.378540,86.451439 
	C193.346878,82.266571 193.646622,78.576988 193.946381,74.887405 
z"/>
<path fill="#F83AF8" opacity="1.000000" stroke="none" 
	d="
M133.200851,40.737999 
	C138.630005,44.856689 138.050186,50.450413 137.488358,55.713375 
	C136.709213,63.012264 135.173706,70.227379 134.214645,77.511620 
	C133.840912,80.350159 134.153564,83.279076 134.153564,87.515892 
	C129.986771,86.812996 125.334412,85.986717 120.663177,85.286369 
	C119.987350,85.185051 119.234901,85.802628 118.494164,85.893112 
	C113.399361,86.515442 107.984634,88.458549 103.266045,87.380432 
	C94.141975,85.295769 91.065659,73.318909 96.731056,64.850716 
	C100.347076,59.445778 105.994949,57.727139 112.034569,57.055202 
	C114.499191,56.781002 117.119370,57.440918 119.485031,56.888683 
	C121.364166,56.450020 124.066299,55.071472 124.401413,53.641224 
	C124.799019,51.944298 123.570511,48.959068 122.089966,47.982185 
	C120.581497,46.986870 117.622917,47.120338 115.833687,47.934311 
	C114.198471,48.678215 113.277924,50.993076 111.891708,52.813560 
	C107.941360,52.813560 103.648605,52.813560 99.100670,52.813560 
	C98.588120,46.206085 102.293861,41.846283 107.265663,39.524143 
	C115.702667,35.583538 124.562103,35.114223 133.200851,40.737999 
M113.945251,77.563011 
	C120.540810,76.397911 122.555779,71.952240 122.355438,65.644409 
	C117.848961,64.060280 113.572945,64.611923 110.457291,68.183853 
	C108.950142,69.911713 108.200188,72.858223 108.322647,75.189125 
	C108.375542,76.195892 111.504631,77.041039 113.945251,77.563011 
z"/>
<path fill="#F839F7" opacity="1.000000" stroke="none" 
	d="
M149.002289,40.925972 
	C149.552765,39.669189 150.161575,38.137127 150.640472,38.176716 
	C154.533539,38.498562 158.395691,39.176872 162.283951,39.589226 
	C163.074326,39.673046 163.989487,39.197441 164.754974,38.801544 
	C171.341766,35.394966 178.015671,36.672012 183.858459,39.906799 
	C186.164200,41.183338 187.783066,45.770950 187.735764,48.820164 
	C187.616898,56.481480 186.507812,64.143028 185.526230,71.769798 
	C184.886719,76.738762 183.774994,81.646950 182.847214,86.733650 
	C178.171692,86.733650 173.733627,86.733650 169.073105,86.733650 
	C171.077744,75.633499 173.244141,64.832458 174.776459,53.942204 
	C175.023376,52.187420 172.876450,49.326302 171.073792,48.229855 
	C168.247299,46.510647 162.331024,48.795532 161.124573,51.632729 
	C160.262985,53.658863 159.819077,55.904091 159.461929,58.096062 
	C157.912598,67.604881 156.463577,77.130043 154.963379,86.743507 
	C150.107559,86.743507 145.665070,86.743507 141.046234,86.743507 
	C143.728195,71.447731 146.364319,56.413368 149.002289,40.925972 
z"/>
<path fill="#F73AF7" opacity="1.000000" stroke="none" 
	d="
M241.022461,78.112030 
	C242.682175,68.379524 244.320023,59.086555 245.998581,49.800941 
	C246.687622,45.989235 247.464447,42.193390 248.310913,37.824810 
	C252.748718,37.824810 256.965820,37.824810 261.571014,37.824810 
	C259.210419,52.251991 257.204590,65.915543 254.671005,79.480507 
	C253.094803,87.919563 252.736313,87.852608 240.050308,86.551865 
	C240.372711,83.884659 240.694855,81.219589 241.022461,78.112030 
z"/>
<path fill="#F33EF3" opacity="1.000000" stroke="none" 
	d="
M263.980865,24.167831 
	C263.070770,26.809620 262.628082,30.438791 261.147583,30.928133 
	C258.328979,31.859764 254.140640,32.080433 251.995819,30.541235 
	C250.250397,29.288683 250.129883,24.992126 250.367432,22.135107 
	C250.464127,20.972261 253.373123,19.260166 255.071075,19.175716 
	C258.662506,18.997091 263.577393,17.312145 263.980865,24.167831 
z"/>
<path fill="#3CF8A6" opacity="1.000000" stroke="none" 
	d="
M29.393555,87.852646 
	C22.005150,87.972748 18.492514,84.385727 20.330864,79.190056 
	C21.879435,74.813370 25.428852,74.293762 29.082174,75.134346 
	C30.898781,75.552330 33.175793,77.168404 33.829193,78.806900 
	C35.409393,82.769485 33.839268,85.978218 29.393555,87.852646 
z"/>
<path fill="#E74EE5" opacity="1.000000" stroke="none" 
	d="
M195.456467,86.900635 
	C195.300293,86.658928 195.607681,86.333549 195.876740,86.362625 
	C201.145554,86.932167 204.602142,84.995110 205.828430,79.259117 
	C205.782883,87.012413 205.782883,87.012413 195.456467,86.900635 
z"/>
<path fill="#E74EE5" opacity="1.000000" stroke="none" 
	d="
M193.593948,75.094528 
	C193.646622,78.576988 193.346878,82.266571 193.059875,86.371155 
	C193.128937,82.957985 193.185226,79.129814 193.593948,75.094528 
z"/>
<path fill="#E458DB" opacity="1.000000" stroke="none" 
	d="
M94.783630,17.659424 
	C91.648369,18.034245 88.285172,18.054411 84.465050,18.043205 
	C87.523987,17.776146 91.039841,17.540455 94.783630,17.659424 
z"/>
<path fill="#E74EE5" opacity="1.000000" stroke="none" 
	d="
M206.407593,78.916214 
	C206.484406,76.810837 206.906723,74.522820 207.700775,72.131607 
	C207.632706,74.263458 207.192902,76.498520 206.407593,78.916214 
z"/>
<path fill="#E458DB" opacity="1.000000" stroke="none" 
	d="
M95.342667,25.874477 
	C95.180992,24.246210 95.368851,22.412024 95.818558,20.287811 
	C95.951004,21.888042 95.821602,23.778297 95.342667,25.874477 
z"/>
<path fill="#E458DB" opacity="1.000000" stroke="none" 
	d="
M93.371048,37.926491 
	C93.140709,36.615040 93.254494,35.100056 93.583649,33.272881 
	C93.771065,34.548111 93.743111,36.135532 93.371048,37.926491 
z"/>
<path fill="#E458DB" opacity="1.000000" stroke="none" 
	d="
M94.358841,31.911041 
	C94.132874,30.595350 94.260666,29.093214 94.599327,27.280762 
	C94.777664,28.555162 94.745132,30.139879 94.358841,31.911041 
z"/>
<path fill="#E458DB" opacity="1.000000" stroke="none" 
	d="
M96.344589,19.920147 
	C95.762276,19.548552 95.486046,19.038836 95.096527,18.261818 
	C95.539047,18.590355 96.094856,19.186192 96.344589,19.920147 
z"/>
<path fill="#E74EE5" opacity="1.000000" stroke="none" 
	d="
M211.340820,69.059692 
	C211.574509,68.967270 212.134613,68.845093 212.831635,68.942825 
	C212.534775,69.118462 212.101013,69.074203 211.340820,69.059692 
z"/>
<path fill="#E458DB" opacity="1.000000" stroke="none" 
	d="
M83.692520,18.093590 
	C83.850662,18.548584 83.689690,19.087465 83.334930,19.839626 
	C83.218552,19.427763 83.295975,18.802620 83.692520,18.093590 
z"/>
<path fill="#E74EE5" opacity="1.000000" stroke="none" 
	d="
M210.278198,69.997986 
	C210.218857,69.798134 210.420959,69.524330 210.855347,69.136292 
	C210.904984,69.322716 210.722321,69.623375 210.278198,69.997986 
z"/>
<path fill="#E74EE5" opacity="1.000000" stroke="none" 
	d="
M209.278656,70.997925 
	C209.215912,70.797798 209.414673,70.523399 209.843185,70.132416 
	C209.895340,70.318443 209.717758,70.621056 209.278656,70.997925 
z"/>
<path fill="#E74EE5" opacity="1.000000" stroke="none" 
	d="
M208.281616,72.002640 
	C208.217255,71.801903 208.414566,71.525497 208.842453,71.132538 
	C208.896454,71.319641 208.719849,71.623306 208.281616,72.002640 
z"/>
<path fill="#000000" opacity="1.000000" stroke="none" 
	d="
M65.092674,77.044846 
	C60.649811,76.737038 58.773228,74.482948 58.995491,70.539207 
	C59.263016,65.792343 59.449993,61.024891 60.068562,56.318493 
	C60.655704,51.851208 66.668152,47.467262 70.976059,47.944874 
	C74.825348,48.371632 77.565102,51.406467 76.954292,54.842823 
	C76.079948,59.761791 74.816116,64.617348 74.084099,69.554176 
	C73.326935,74.660622 70.484932,76.966133 65.092674,77.044846 
z"/>
<path fill="#000000" opacity="1.000000" stroke="none" 
	d="
M113.590782,77.761307 
	C111.504631,77.041039 108.375542,76.195892 108.322647,75.189125 
	C108.200188,72.858223 108.950142,69.911713 110.457291,68.183853 
	C113.572945,64.611923 117.848961,64.060280 122.355438,65.644409 
	C122.555779,71.952240 120.540810,76.397911 113.590782,77.761307 
z"/>
</svg>