<svg version="1.1" id="Layer_1" xmlns="http://www.w3.org/2000/svg" xmlns:xlink="http://www.w3.org/1999/xlink" x="0px" y="0px"
	 width="100%" viewBox="0 0 290 113" enable-background="new 0 0 290 113" xml:space="preserve">
<path fill="#FEFEFE" opacity="1.000000" stroke="none" 
	d="
M185.000000,114.000000 
	C123.333351,114.000000 62.166702,114.000000 1.000041,114.000000 
	C1.000027,76.333366 1.000027,38.666725 1.000014,1.000066 
	C97.666603,1.000044 194.333206,1.000044 290.999878,1.000022 
	C290.999908,38.666599 290.999908,76.333199 290.999939,113.999893 
	C255.833328,114.000000 220.666672,114.000000 185.000000,114.000000 
M48.555317,66.710159 
	C48.715828,69.530869 48.594376,72.401817 49.086483,75.163437 
	C51.041176,86.132866 60.393566,91.801003 69.995018,87.909378 
	C71.792221,87.180946 73.410233,86.010422 75.063934,85.070625 
	C78.119896,90.813278 83.000824,86.681900 86.941666,88.232735 
	C90.991501,64.815208 94.918106,42.110229 98.872490,19.244625 
	C94.453255,19.244625 90.349686,19.244625 86.250992,19.244625 
	C84.772652,27.581354 83.337502,35.674545 81.860558,44.003407 
	C71.990219,34.771141 60.193081,36.232063 53.970478,47.932739 
	C51.097187,53.335541 50.297157,59.840939 48.555317,66.710159 
M211.273392,71.950783 
	C212.530151,70.910194 213.786926,69.869598 215.361282,68.566040 
	C216.705902,71.564133 217.915344,74.215126 219.087585,76.882477 
	C224.091278,88.268227 224.087326,88.272415 236.546906,87.960732 
	C236.808090,87.954201 237.063049,87.699211 237.633804,87.391373 
	C233.783066,79.341614 230.036697,71.240616 226.021240,63.275276 
	C224.770172,60.793552 224.886658,59.285076 226.991104,57.304108 
	C233.081390,51.571182 238.914032,45.564541 245.522217,38.994854 
	C241.553452,38.994854 238.582626,39.239941 235.668747,38.937122 
	C231.352142,38.488525 228.102081,39.795433 225.309708,43.196358 
	C221.774796,47.501617 217.846146,51.483582 214.087311,55.604980 
	C213.677551,55.266357 213.267792,54.927734 212.858017,54.589111 
	C214.885757,42.847965 216.913498,31.106819 218.957855,19.269543 
	C214.658417,19.269543 210.568054,19.269543 206.380554,19.269543 
	C202.407166,42.209335 198.477081,64.899117 194.504868,87.832169 
	C198.917099,87.832169 202.874039,87.832169 206.539658,87.832169 
	C207.961487,82.576180 209.330490,77.515541 211.273392,71.950783 
M133.293365,88.006775 
	C134.499069,87.894180 135.704758,87.781578 136.676727,87.690811 
	C136.676727,84.127586 136.372482,80.972092 136.735184,77.895226 
	C137.727493,69.477066 139.211777,61.113998 140.089600,52.686237 
	C140.690918,46.913197 137.509048,42.861126 132.620239,40.209385 
	C124.425652,35.764561 111.515343,37.959229 105.493858,45.024830 
	C103.679573,47.153721 102.757088,50.042614 101.124718,53.158642 
	C105.735092,53.158642 109.194000,53.272797 112.635826,53.080677 
	C113.528076,53.030869 114.655029,52.213516 115.180267,51.421272 
	C117.461281,47.980728 120.504936,45.915359 124.439468,47.783421 
	C128.890091,49.896515 128.073547,53.914677 126.807281,57.995174 
	C124.322006,57.995174 121.735130,57.555981 119.364075,58.084660 
	C114.082558,59.262291 108.540695,60.189503 103.784859,62.574562 
	C97.886795,65.532455 95.823685,72.715286 97.732971,79.027817 
	C99.558899,85.064774 105.046280,89.389282 111.707939,88.846024 
	C115.823860,88.510368 119.811783,86.605179 123.803970,85.420403 
	C124.793808,90.473930 129.384293,87.142227 133.293365,88.006775 
M189.391220,60.850182 
	C189.614471,57.211235 190.237091,53.543636 189.978516,49.939255 
	C189.427246,42.254829 184.357162,37.519009 176.748520,38.168762 
	C172.982422,38.490368 169.369247,40.622536 165.693329,41.953293 
	C165.276138,42.104324 164.900665,42.370663 164.310516,42.688854 
	C164.178513,41.359474 164.071228,40.279263 163.979172,39.352299 
	C160.057800,39.352299 156.315521,39.352299 152.511047,39.352299 
	C149.706436,55.662567 146.959396,71.637962 144.172958,87.842514 
	C148.573837,87.842514 152.533417,87.842514 156.791031,87.842514 
	C158.590744,77.298782 160.397125,66.857239 162.147308,56.406284 
	C163.108093,50.669109 167.120407,47.453262 172.545166,48.187511 
	C176.846252,48.769676 178.193008,51.423195 177.191071,57.898514 
	C175.653946,67.832596 173.996277,77.748032 172.361252,87.847389 
	C176.758820,87.847389 180.722992,87.847389 184.969543,87.847389 
	C186.406189,79.074539 187.825653,70.406609 189.391220,60.850182 
M243.859299,81.283310 
	C243.497620,83.370476 243.135941,85.457649 242.729843,87.801193 
	C247.021652,87.801193 250.955093,87.801193 255.248306,87.801193 
	C258.024170,71.639000 260.791687,55.525463 263.601593,39.165077 
	C259.162292,39.165077 255.216278,39.165077 251.041306,39.165077 
	C248.667099,52.992012 246.312729,66.703461 243.859299,81.283310 
M24.615366,77.075027 
	C24.034239,77.869804 22.910244,78.708328 22.970127,79.451454 
	C23.179848,82.054146 22.970268,86.006752 24.448885,86.891533 
	C26.839823,88.322220 30.802586,88.662300 33.406418,87.658936 
	C35.131660,86.994133 36.936596,82.791924 36.362862,80.874268 
	C35.680119,78.592247 32.708820,76.631783 30.289021,75.388626 
	C29.111801,74.783844 26.933624,76.127426 24.615366,77.075027 
M253.940170,22.346256 
	C253.525604,23.230106 252.571152,24.291878 252.793274,24.965902 
	C253.600937,27.416689 254.269333,31.111759 255.983673,31.776804 
	C258.390411,32.710468 262.335297,32.224205 264.382996,30.690552 
	C265.878998,29.570145 266.555939,24.966177 265.465546,23.393381 
	C264.132141,21.470064 260.631775,20.844809 257.939789,20.176844 
	C256.979950,19.938679 255.644135,21.215969 253.940170,22.346256 
z"/>
<path fill="#050505" opacity="1.000000" stroke="none" 
	d="
M48.556213,66.278290 
	C50.297157,59.840939 51.097187,53.335541 53.970478,47.932739 
	C60.193081,36.232063 71.990219,34.771141 81.860558,44.003407 
	C83.337502,35.674545 84.772652,27.581354 86.250992,19.244625 
	C90.349686,19.244625 94.453255,19.244625 98.872490,19.244625 
	C94.918106,42.110229 90.991501,64.815208 86.941666,88.232735 
	C83.000824,86.681900 78.119896,90.813278 75.063934,85.070625 
	C73.410233,86.010422 71.792221,87.180946 69.995018,87.909378 
	C60.393566,91.801003 51.041176,86.132866 49.086483,75.163437 
	C48.594376,72.401817 48.715828,69.530869 48.556213,66.278290 
M72.935829,77.660667 
	C74.399551,75.222710 76.377449,72.945900 77.204071,70.308281 
	C78.385002,66.540070 78.549347,62.466488 79.467110,58.599091 
	C80.516518,54.177010 79.811401,50.597775 75.375084,48.633614 
	C71.463181,46.901638 66.362679,48.592922 64.684464,53.306385 
	C62.730133,58.795330 61.448292,64.788719 61.319050,70.595352 
	C61.157742,77.842751 65.015198,80.003418 72.935829,77.660667 
z"/>
<path fill="#040404" opacity="1.000000" stroke="none" 
	d="
M210.986435,72.202843 
	C209.330490,77.515541 207.961487,82.576180 206.539658,87.832169 
	C202.874039,87.832169 198.917099,87.832169 194.504868,87.832169 
	C198.477081,64.899117 202.407166,42.209335 206.380554,19.269543 
	C210.568054,19.269543 214.658417,19.269543 218.957855,19.269543 
	C216.913498,31.106819 214.885757,42.847965 212.858017,54.589111 
	C213.267792,54.927734 213.677551,55.266357 214.087311,55.604980 
	C217.846146,51.483582 221.774796,47.501617 225.309708,43.196358 
	C228.102081,39.795433 231.352142,38.488525 235.668747,38.937122 
	C238.582626,39.239941 241.553452,38.994854 245.522217,38.994854 
	C238.914032,45.564541 233.081390,51.571182 226.991104,57.304108 
	C224.886658,59.285076 224.770172,60.793552 226.021240,63.275276 
	C230.036697,71.240616 233.783066,79.341614 237.633804,87.391373 
	C237.063049,87.699211 236.808090,87.954201 236.546906,87.960732 
	C224.087326,88.272415 224.091278,88.268227 219.087585,76.882477 
	C217.915344,74.215126 216.705902,71.564133 215.361282,68.566040 
	C213.786926,69.869598 212.530151,70.910194 210.986435,72.202843 
z"/>
<path fill="#050505" opacity="1.000000" stroke="none" 
	d="
M132.837433,88.006775 
	C129.384293,87.142227 124.793808,90.473930 123.803970,85.420403 
	C119.811783,86.605179 115.823860,88.510368 111.707939,88.846024 
	C105.046280,89.389282 99.558899,85.064774 97.732971,79.027817 
	C95.823685,72.715286 97.886795,65.532455 103.784859,62.574562 
	C108.540695,60.189503 114.082558,59.262291 119.364075,58.084660 
	C121.735130,57.555981 124.322006,57.995174 126.807281,57.995174 
	C128.073547,53.914677 128.890091,49.896515 124.439468,47.783421 
	C120.504936,45.915359 117.461281,47.980728 115.180267,51.421272 
	C114.655029,52.213516 113.528076,53.030869 112.635826,53.080677 
	C109.194000,53.272797 105.735092,53.158642 101.124718,53.158642 
	C102.757088,50.042614 103.679573,47.153721 105.493858,45.024830 
	C111.515343,37.959229 124.425652,35.764561 132.620239,40.209385 
	C137.509048,42.861126 140.690918,46.913197 140.089600,52.686237 
	C139.211777,61.113998 137.727493,69.477066 136.735184,77.895226 
	C136.372482,80.972092 136.676727,84.127586 136.676727,87.690811 
	C135.704758,87.781578 134.499069,87.894180 132.837433,88.006775 
M125.058044,65.196121 
	C120.983665,66.224945 116.576118,66.607224 112.937744,68.482132 
	C109.892570,70.051361 108.723724,73.856018 110.801338,77.161201 
	C112.891678,80.486626 116.271202,79.613983 119.296974,78.450531 
	C125.259766,76.157768 125.368050,70.810120 125.058044,65.196121 
z"/>
<path fill="#040404" opacity="1.000000" stroke="none" 
	d="
M189.318176,61.294426 
	C187.825653,70.406609 186.406189,79.074539 184.969543,87.847389 
	C180.722992,87.847389 176.758820,87.847389 172.361252,87.847389 
	C173.996277,77.748032 175.653946,67.832596 177.191071,57.898514 
	C178.193008,51.423195 176.846252,48.769676 172.545166,48.187511 
	C167.120407,47.453262 163.108093,50.669109 162.147308,56.406284 
	C160.397125,66.857239 158.590744,77.298782 156.791031,87.842514 
	C152.533417,87.842514 148.573837,87.842514 144.172958,87.842514 
	C146.959396,71.637962 149.706436,55.662567 152.511047,39.352299 
	C156.315521,39.352299 160.057800,39.352299 163.979172,39.352299 
	C164.071228,40.279263 164.178513,41.359474 164.310516,42.688854 
	C164.900665,42.370663 165.276138,42.104324 165.693329,41.953293 
	C169.369247,40.622536 172.982422,38.490368 176.748520,38.168762 
	C184.357162,37.519009 189.427246,42.254829 189.978516,49.939255 
	C190.237091,53.543636 189.614471,57.211235 189.318176,61.294426 
z"/>
<path fill="#040404" opacity="1.000000" stroke="none" 
	d="
M243.908829,80.849106 
	C246.312729,66.703461 248.667099,52.992012 251.041306,39.165077 
	C255.216278,39.165077 259.162292,39.165077 263.601593,39.165077 
	C260.791687,55.525463 258.024170,71.639000 255.248306,87.801193 
	C250.955093,87.801193 247.021652,87.801193 242.729843,87.801193 
	C243.135941,85.457649 243.497620,83.370476 243.908829,80.849106 
z"/>
<path fill="#FF3EFF" opacity="1.000000" stroke="none" 
	d="
M24.911966,76.832016 
	C26.933624,76.127426 29.111801,74.783844 30.289021,75.388626 
	C32.708820,76.631783 35.680119,78.592247 36.362862,80.874268 
	C36.936596,82.791924 35.131660,86.994133 33.406418,87.658936 
	C30.802586,88.662300 26.839823,88.322220 24.448885,86.891533 
	C22.970268,86.006752 23.179848,82.054146 22.970127,79.451454 
	C22.910244,78.708328 24.034239,77.869804 24.911966,76.832016 
z"/>
<path fill="#040404" opacity="1.000000" stroke="none" 
	d="
M254.210052,22.073883 
	C255.644135,21.215969 256.979950,19.938679 257.939789,20.176844 
	C260.631775,20.844809 264.132141,21.470064 265.465546,23.393381 
	C266.555939,24.966177 265.878998,29.570145 264.382996,30.690552 
	C262.335297,32.224205 258.390411,32.710468 255.983673,31.776804 
	C254.269333,31.111759 253.600937,27.416689 252.793274,24.965902 
	C252.571152,24.291878 253.525604,23.230106 254.210052,22.073883 
z"/>
<path fill="#F9F9F9" opacity="1.000000" stroke="none" 
	d="
M72.582413,77.827621 
	C65.015198,80.003418 61.157742,77.842751 61.319050,70.595352 
	C61.448292,64.788719 62.730133,58.795330 64.684464,53.306385 
	C66.362679,48.592922 71.463181,46.901638 75.375084,48.633614 
	C79.811401,50.597775 80.516518,54.177010 79.467110,58.599091 
	C78.549347,62.466488 78.385002,66.540070 77.204071,70.308281 
	C76.377449,72.945900 74.399551,75.222710 72.582413,77.827621 
z"/>
<path fill="#F7F7F7" opacity="1.000000" stroke="none" 
	d="
M125.410812,65.423615 
	C125.368050,70.810120 125.259766,76.157768 119.296974,78.450531 
	C116.271202,79.613983 112.891678,80.486626 110.801338,77.161201 
	C108.723724,73.856018 109.892570,70.051361 112.937744,68.482132 
	C116.576118,66.607224 120.983665,66.224945 125.410812,65.423615 
z"/>
</svg>